<?xml version="1.0" standalone="no"?>
<!DOCTYPE svg PUBLIC "-//W3C//DTD SVG 20010904//EN"
 "http://www.w3.org/TR/2001/REC-SVG-20010904/DTD/svg10.dtd">
<svg version="1.0" xmlns="http://www.w3.org/2000/svg"
 width="1280.000000pt" height="1280.000000pt" viewBox="0 0 1280.000000 1280.000000"
 preserveAspectRatio="xMidYMid meet">

<g transform="translate(0.000000,1280.000000) scale(0.100000,-0.100000)"
fill="#1800AD" stroke="none">
<path d="M5860 10253 c-88 -7 -348 -44 -510 -74 -290 -52 -555 -128 -900 -256
-857 -320 -1515 -719 -2430 -1477 -493 -408 -816 -709 -1371 -1277 -538 -552
-649 -673 -649 -715 0 -54 263 -337 911 -979 760 -753 1383 -1291 1934 -1667
385 -264 1073 -618 1527 -787 451 -167 996 -294 1463 -341 293 -29 781 -29
1065 0 437 45 876 142 1300 289 1167 403 2258 1166 3656 2556 270 269 857 884
875 917 14 25 -73 119 -599 645 -862 863 -1218 1188 -1755 1607 -901 702
-1676 1114 -2565 1365 -266 75 -619 145 -857 171 -197 21 -925 36 -1095 23z
m636 -553 c487 -27 803 -81 1218 -207 755 -229 1424 -582 2191 -1158 442 -332
660 -524 1378 -1214 393 -377 647 -641 647 -671 0 -49 -868 -914 -1280 -1276
-642 -563 -1237 -995 -1765 -1281 -629 -341 -1100 -505 -1790 -622 -433 -74
-900 -79 -1342 -15 -706 102 -1086 215 -1653 495 -775 381 -1424 850 -2290
1654 -277 257 -1071 1046 -1068 1060 4 17 746 744 948 931 575 529 1014 888
1470 1202 943 649 1804 982 2855 1105 66 8 313 6 481 -3z"/>
<path d="M5908 8900 c-461 -42 -1045 -239 -1632 -552 -553 -295 -900 -539
-1361 -957 -302 -275 -906 -863 -941 -916 -22 -34 -21 -35 182 -245 547 -568
1146 -1085 1598 -1378 644 -418 1348 -716 1931 -819 87 -15 170 -17 650 -18
624 0 636 1 952 81 361 91 664 206 1043 395 615 308 1049 616 1575 1116 338
322 815 809 815 831 0 63 -794 839 -1225 1198 -428 355 -711 538 -1209 779
-590 286 -1063 433 -1521 475 -157 15 -733 21 -857 10z m703 -554 c453 -42
947 -197 1489 -467 539 -269 947 -568 1560 -1144 283 -267 294 -278 282 -302
-15 -28 -481 -484 -612 -599 -770 -673 -1542 -1068 -2440 -1248 -519 -103
-1035 -59 -1645 143 -316 104 -713 300 -1127 558 -365 226 -552 375 -1013 804
-246 229 -345 332 -345 358 0 49 729 710 1030 933 647 481 1598 897 2210 967
121 14 443 12 611 -3z"/>
<path d="M6129 7491 c-204 -44 -375 -140 -539 -301 -207 -203 -303 -413 -317
-695 -15 -313 103 -614 324 -826 145 -139 317 -223 543 -265 71 -13 128 -15
253 -11 179 5 285 26 431 87 356 148 607 542 608 955 0 125 -12 203 -49 313
-118 353 -398 622 -758 728 -124 36 -365 44 -496 15z"/>
</g>
</svg>
