<?xml version="1.0" standalone="no"?>
<!DOCTYPE svg PUBLIC "-//W3C//DTD SVG 20010904//EN"
 "http://www.w3.org/TR/2001/REC-SVG-20010904/DTD/svg10.dtd">
<svg version="1.0" xmlns="http://www.w3.org/2000/svg"
 width="837.000000pt" height="700.000000pt" viewBox="0 0 837.000000 700.000000"
 preserveAspectRatio="xMidYMid meet">

<g transform="translate(0.000000,700.000000) scale(0.100000,-0.100000)"
fill="#1800AD" stroke="none">
<path d="M7610 6698 c-80 -121 -146 -227 -148 -234 -2 -10 6 -14 27 -14 47 0
80 17 92 47 71 179 -156 -665 -297 -1101 -30 -93 -64 -184 -75 -202 -38 -61
-118 -66 -220 -12 -114 60 -127 110 -75 308 19 74 58 225 86 335 28 110 54
202 56 205 3 2 13 -1 24 -8 13 -8 21 -8 26 -1 9 15 -6 499 -16 499 -7 0 -278
-373 -287 -396 -6 -16 55 -29 93 -20 25 7 25 5 19 -26 -11 -54 -112 -310 -197
-503 -111 -251 -131 -310 -124 -361 10 -78 45 -148 116 -236 69 -86 72 -88
114 -88 127 0 228 -87 243 -207 7 -63 -13 -107 -67 -147 -56 -41 -59 -59 -19
-115 18 -25 32 -55 31 -67 -1 -18 -89 -395 -112 -485 -13 -48 -105 -119 -155
-119 -55 0 -81 -19 -114 -79 -16 -32 -39 -65 -50 -75 -10 -9 -24 -30 -31 -46
-10 -23 -8 -34 9 -68 11 -22 31 -48 43 -57 22 -15 23 -23 25 -148 1 -72 2
-164 2 -202 0 -61 3 -76 29 -114 17 -25 28 -49 27 -55 -2 -6 -16 -65 -30 -130
-25 -115 -29 -122 -85 -195 -57 -73 -129 -138 -218 -196 -23 -15 -44 -26 -46
-24 -2 2 -15 32 -29 65 -54 135 -159 251 -286 318 -56 29 -72 43 -76 64 -49
242 -141 406 -300 535 -100 80 -242 137 -380 149 -21 2 -38 15 -63 47 -18 24
-32 51 -30 59 2 8 41 43 88 76 101 73 152 141 176 236 34 136 -8 267 -117 362
-84 73 -90 88 -92 227 -2 114 -3 119 -35 171 -33 53 -33 53 -13 74 33 36 35
67 7 134 -14 34 -26 66 -26 72 0 6 12 29 27 51 36 54 34 111 -6 208 -17 41
-31 80 -31 88 0 7 11 36 25 63 60 119 14 244 -114 310 l-37 18 -12 203 c-7
112 -15 206 -18 208 -3 3 -10 -1 -14 -9 -58 -96 -119 -185 -132 -194 -13 -7
-27 -6 -53 7 -31 15 -43 31 -81 115 -99 214 -158 332 -165 332 -9 0 -11 -10
-53 -230 -19 -102 -38 -193 -42 -203 -8 -22 -84 -57 -123 -57 -21 0 -53 27
-150 125 -68 69 -128 125 -132 125 -5 0 -9 -90 -9 -200 l0 -200 -42 -30 c-68
-50 -74 -49 -207 25 -66 37 -125 65 -130 63 -6 -1 16 -83 49 -183 46 -140 57
-182 47 -191 -6 -6 -41 -16 -77 -23 -152 -30 -241 -102 -322 -264 -28 -58 -66
-117 -87 -137 -67 -64 -168 -77 -300 -38 -55 16 -103 22 -171 22 -83 0 -102
-3 -152 -27 -31 -15 -74 -45 -97 -67 -40 -39 -87 -117 -77 -127 3 -3 31 11 62
32 132 88 240 94 383 23 69 -34 97 -42 155 -45 39 -3 82 0 96 5 l25 11 -26 0
c-33 1 -97 24 -166 58 -53 27 -72 51 -30 38 159 -48 266 -28 353 67 23 24 63
87 90 139 53 102 116 174 183 208 23 12 78 26 124 32 216 26 238 34 394 153
56 41 114 81 130 88 15 6 66 35 113 64 158 98 332 135 469 100 87 -22 269
-122 293 -161 19 -31 26 -135 9 -135 -5 0 -23 25 -40 55 -17 30 -34 55 -37 55
-4 0 -12 -7 -18 -16 -11 -14 -17 -11 -57 22 -130 109 -295 123 -503 41 -43
-17 -74 -33 -68 -35 6 -2 47 4 92 12 90 17 210 21 210 7 0 -5 -24 -15 -52 -21
-29 -7 -105 -35 -168 -62 -63 -27 -153 -60 -199 -74 -47 -13 -87 -27 -90 -31
-7 -7 170 4 214 13 l30 7 -19 -22 c-35 -39 -155 -90 -261 -111 -55 -10 -134
-31 -175 -45 -64 -23 -93 -27 -205 -29 -127 -2 -131 -2 -194 -36 -62 -33 -111
-81 -213 -210 -25 -31 -65 -67 -93 -82 -58 -32 -53 -33 33 -13 92 22 135 48
232 140 136 129 203 154 540 205 132 20 252 51 278 72 22 19 26 -1 7 -43 -10
-22 -39 -59 -64 -81 -69 -61 -135 -88 -245 -99 -104 -10 -157 -26 -223 -64
-52 -31 -64 -48 -24 -34 16 6 41 9 55 7 23 -3 15 -13 -87 -119 -88 -90 -131
-126 -197 -164 -62 -35 -113 -76 -186 -150 -56 -56 -118 -109 -138 -119 -47
-22 -42 -29 10 -15 50 14 107 43 164 83 25 18 89 58 143 89 53 32 122 78 152
102 30 25 55 40 55 34 0 -23 -60 -115 -102 -156 -53 -51 -288 -195 -360 -220
-45 -15 -85 -18 -253 -18 -186 0 -203 -2 -248 -22 -105 -49 -167 -122 -227
-268 -59 -141 -111 -204 -209 -252 -46 -23 -69 -28 -131 -27 -63 0 -89 6 -160
36 -124 52 -178 56 -265 23 -39 -16 25 43 74 67 42 21 60 23 196 23 143 0 152
1 200 27 75 39 131 106 185 221 26 56 68 130 94 165 25 34 44 62 41 62 -3 0
-35 -23 -71 -50 -116 -89 -219 -127 -308 -116 -42 6 -250 92 -279 117 -5 3 67
6 160 5 159 -1 171 0 218 24 30 14 85 59 136 111 87 88 124 109 189 109 55 0
56 -15 7 -71 -26 -30 -47 -57 -47 -61 0 -5 23 3 52 18 94 48 130 56 273 63
129 7 145 10 205 39 60 29 156 99 147 108 -2 3 -35 -10 -73 -28 -63 -30 -77
-32 -169 -33 -83 0 -116 5 -195 30 -73 22 -114 29 -177 29 -45 0 -80 4 -77 8
3 5 26 19 52 33 58 30 27 34 -37 5 -74 -34 -138 -88 -206 -175 -53 -68 -76
-89 -122 -111 -54 -26 -65 -28 -163 -25 -221 8 -272 5 -332 -18 -70 -27 -159
-105 -187 -164 -24 -52 -38 -137 -22 -137 6 0 11 4 11 9 0 4 18 28 39 53 59
66 143 101 231 96 59 -3 82 -11 192 -67 123 -63 127 -64 223 -69 l96 -5 -42
-43 c-61 -62 -106 -74 -264 -72 -127 2 -131 1 -196 -30 -125 -60 -200 -174
-207 -314 -2 -42 0 -84 6 -94 8 -15 13 -11 29 27 44 99 128 162 218 162 37 0
68 -9 120 -36 39 -19 91 -41 115 -47 40 -11 43 -14 26 -24 -59 -35 -105 -78
-143 -136 -95 -141 -130 -161 -303 -171 -139 -8 -197 -24 -253 -70 -70 -57
-111 -163 -92 -236 l7 -28 20 40 c29 58 66 94 123 121 61 29 100 30 207 4 99
-24 158 -25 223 -5 27 8 50 13 52 11 1 -1 -2 -18 -7 -37 -6 -19 -14 -73 -19
-120 l-8 -85 -90 -88 c-171 -164 -238 -296 -279 -549 -20 -123 -41 -178 -112
-285 -91 -139 -106 -183 -107 -323 0 -127 0 -128 66 -180 l38 -30 -2 148 c-2
182 10 222 113 363 39 52 75 106 81 120 6 14 20 77 31 140 31 187 65 283 137
389 51 74 139 163 159 159 33 -6 58 -210 31 -260 -8 -15 -8 -19 0 -13 6 3 22
28 35 54 23 44 24 58 28 286 4 227 6 244 31 320 36 108 88 195 172 284 80 85
148 138 232 180 154 78 284 107 440 97 l103 -7 -6 30 c-9 45 19 55 133 47 97
-7 114 -2 63 15 -16 6 -30 14 -30 19 0 4 62 29 138 55 208 72 277 107 349 181
34 35 64 60 67 56 2 -4 12 -36 21 -72 16 -64 65 -184 71 -177 2 2 -3 41 -11
88 -28 155 -30 274 -6 365 25 99 68 214 85 232 11 11 19 8 49 -17 l35 -31 4
-104 c3 -96 6 -109 41 -178 23 -44 68 -107 110 -154 40 -44 102 -125 139 -180
61 -91 68 -106 68 -150 0 -32 8 -66 23 -94 25 -51 101 -113 162 -133 l40 -14
-4 -77 c-4 -100 12 -129 67 -120 49 7 271 -13 343 -31 32 -9 79 -24 105 -35
26 -11 50 -18 53 -14 3 3 -18 27 -47 53 -28 26 -49 51 -45 54 10 10 88 8 117
-3 29 -11 32 -4 11 24 -24 32 -18 36 50 36 170 0 352 -130 450 -321 39 -77 75
-178 75 -212 0 -23 -4 -24 -82 -30 -46 -2 -89 -6 -96 -8 -8 -3 -31 23 -54 61
-36 59 -127 164 -135 156 -2 -2 10 -34 26 -72 51 -120 65 -188 64 -314 0 -104
-3 -120 -27 -173 -33 -68 -76 -101 -155 -118 -99 -21 -280 11 -404 70 -34 16
-63 28 -66 26 -8 -8 29 -54 72 -89 81 -66 256 -140 379 -161 47 -7 57 -35 64
-180 7 -134 -10 -229 -60 -330 -33 -66 -83 -132 -92 -122 -3 3 0 26 7 51 16
65 7 191 -18 246 -11 25 -32 57 -47 72 -26 25 -174 109 -206 116 -8 2 20 -32
62 -75 42 -43 87 -98 99 -122 46 -89 34 -208 -26 -268 -30 -30 -38 -33 -94
-33 -68 0 -78 -11 -29 -31 50 -21 106 -77 118 -117 17 -64 12 -182 -12 -252
-18 -55 -20 -70 -10 -107 16 -58 15 -99 -4 -162 -8 -29 -13 -55 -11 -58 3 -2
23 5 44 16 73 37 98 146 90 403 -4 144 -2 180 10 189 7 7 15 10 18 8 13 -14
65 -353 65 -425 0 -46 2 -84 5 -84 21 0 105 53 110 70 7 21 -8 189 -25 295
-19 116 -14 164 28 251 22 43 45 97 52 119 7 22 16 44 20 48 4 4 45 -21 92
-56 46 -35 138 -91 205 -125 74 -38 150 -86 198 -126 100 -83 180 -125 256
-136 34 -5 63 -11 65 -13 3 -2 -16 -91 -41 -197 -25 -106 -45 -194 -45 -196 0
-9 89 -3 150 10 82 18 208 73 214 95 3 9 28 119 56 245 l51 230 93 90 c207
202 308 393 380 721 35 158 80 292 121 356 39 63 55 129 55 226 0 35 8 114 19
176 31 184 41 284 43 432 2 188 4 185 -159 276 -29 16 -53 35 -52 42 0 6 28
131 62 277 l62 265 52 28 c63 34 72 56 44 117 -30 66 -27 109 12 166 17 27 46
58 64 70 62 41 194 38 234 -5 23 -25 28 -24 132 20 118 49 184 105 229 192 17
35 22 74 34 311 12 245 22 372 42 551 8 66 15 70 79 44 18 -7 35 -10 39 -6 9
8 -4 108 -41 317 -29 164 -32 177 -44 164 -14 -14 -221 -413 -221 -425 0 -6
13 -7 34 -3 l34 6 -9 -39 c-5 -21 -38 -173 -75 -338 -36 -165 -71 -315 -77
-333 -6 -18 -27 -48 -45 -67 -84 -83 -291 -64 -322 31 -18 53 4 204 115 799
36 193 75 409 88 480 17 101 23 121 25 87 3 -37 8 -46 43 -68 22 -13 44 -22
50 -19 5 4 7 27 4 53 -3 26 -14 135 -25 242 -23 224 -28 260 -38 260 -4 -1
-72 -100 -152 -222z m-29 -660 c-189 -956 -193 -980 -158 -1045 23 -43 90 -64
228 -70 156 -8 231 24 271 114 11 25 42 165 69 311 56 306 94 481 109 496 13
13 13 -5 0 -59 -10 -45 -45 -330 -55 -445 -17 -207 -37 -356 -52 -387 -21 -45
-76 -89 -138 -110 -51 -17 -159 -22 -335 -14 -55 3 -95 0 -110 -8 -14 -7 -55
-44 -91 -83 -58 -62 -68 -69 -86 -60 -15 8 -22 26 -27 64 -9 67 -49 152 -84
176 -15 10 -81 43 -147 73 -145 65 -210 114 -248 189 -41 79 -34 119 58 352
88 220 152 391 185 493 26 82 45 109 34 50 -8 -49 -85 -329 -154 -560 -27 -93
-50 -185 -50 -203 0 -115 114 -214 300 -263 151 -39 166 -18 278 381 45 157
108 386 141 510 33 124 72 267 86 318 14 51 25 96 26 100 0 4 3 2 5 -5 3 -7
-22 -148 -55 -315z m-3011 62 c0 -6 26 -66 58 -133 l59 -123 84 -22 84 -23 20
26 c12 14 25 25 29 25 9 0 3 -87 -7 -96 -2 -3 -40 4 -83 15 -116 29 -170 33
-262 22 -174 -22 -386 -113 -580 -248 -88 -62 -109 -73 -126 -65 -22 10 -93
119 -84 128 3 2 31 -9 63 -26 31 -16 64 -30 71 -30 8 0 38 17 67 38 29 21 73
51 99 67 27 17 48 35 48 42 0 7 -5 58 -11 113 -6 56 -8 104 -5 108 4 3 44 -31
89 -76 l83 -82 69 23 c39 13 94 30 123 36 28 7 52 16 52 19 0 13 32 247 36
260 4 14 24 16 24 2z m325 -651 c95 -32 117 -50 136 -109 7 -19 29 -74 51
-123 21 -48 36 -92 32 -98 -4 -7 -21 -9 -41 -6 -29 5 -35 3 -43 -19 -8 -21 -2
-44 35 -129 61 -140 65 -161 31 -176 -22 -10 -33 -9 -62 4 -39 19 -70 22 -79
7 -3 -5 -17 -10 -30 -10 -28 0 -41 30 -25 60 7 13 7 20 1 20 -18 0 -33 -41
-27 -75 6 -31 4 -33 -38 -49 -52 -20 -113 -76 -132 -123 -20 -46 -44 -164 -32
-157 5 3 26 40 46 82 46 95 87 137 154 157 60 18 87 19 122 5 56 -21 13 -82
-67 -95 -53 -9 -83 -36 -112 -100 -12 -27 -43 -74 -68 -104 -43 -50 -67 -104
-53 -119 4 -3 13 4 21 15 8 12 32 31 52 44 55 32 92 69 114 112 11 21 26 40
33 43 26 10 129 -16 153 -38 13 -12 30 -43 37 -68 23 -77 51 -122 116 -185 84
-82 104 -122 105 -211 0 -90 -38 -171 -104 -221 -24 -19 -45 -32 -47 -30 -2 2
5 21 16 42 44 87 16 214 -68 307 -66 73 -95 118 -109 166 l-13 47 3 -61 c2
-46 10 -72 33 -108 65 -106 75 -126 85 -178 9 -45 8 -65 -5 -111 -14 -49 -26
-65 -101 -133 -91 -83 -109 -119 -86 -171 7 -14 10 -27 8 -30 -10 -10 -59 11
-87 37 -58 55 -52 113 20 180 73 67 88 126 51 205 -21 44 -86 122 -77 91 20
-63 27 -110 22 -141 -10 -49 -63 -99 -128 -120 -112 -36 -163 -95 -138 -160
14 -36 8 -40 -28 -21 -46 24 -72 63 -72 108 0 54 9 68 84 127 49 38 67 60 75
88 14 49 0 99 -40 149 -37 45 -79 130 -79 159 0 17 -2 17 -10 5 -16 -25 -11
-103 10 -165 21 -62 26 -120 11 -130 -13 -8 -190 128 -223 172 -59 78 -76 221
-34 301 22 43 8 41 -28 -4 -33 -41 -66 -122 -66 -160 0 -38 -19 -25 -49 31
-38 73 -35 144 13 257 25 59 36 102 36 135 l0 48 -26 -32 c-57 -73 -158 -21
-220 112 -27 57 -32 115 -10 115 8 0 20 -15 26 -34 6 -19 17 -40 25 -46 11
-10 14 -7 12 17 -2 34 26 40 31 5 5 -31 65 -92 91 -92 24 0 28 22 6 40 -34 28
-15 65 52 104 8 4 22 -12 40 -46 l27 -53 11 50 c6 28 15 49 21 48 5 -1 17 -44
27 -95 9 -51 21 -106 26 -123 7 -28 8 -26 15 26 7 46 3 70 -18 138 -27 86 -32
143 -17 185 6 13 31 53 57 88 49 67 84 137 84 169 0 33 38 96 72 123 48 36
144 65 213 66 43 0 88 -9 150 -31z m218 -810 c20 -28 39 -98 30 -113 -4 -5
-17 14 -29 42 -13 29 -28 52 -33 52 -6 0 -11 12 -11 26 0 31 16 28 43 -7z
m-74 -93 c13 -16 1 -29 -21 -22 -7 2 -26 7 -41 10 -15 4 -25 11 -22 16 9 15
71 12 84 -4z m2186 1 c50 -13 50 -14 62 -68 7 -30 11 -59 8 -66 -2 -8 -36 -3
-115 17 -61 16 -114 31 -117 34 -10 10 72 95 92 95 11 1 42 -5 70 -12z m-56
-226 c10 -6 12 -19 6 -47 -14 -78 -107 -449 -114 -457 -4 -4 -22 -2 -40 4 -26
9 -32 16 -28 33 3 11 29 123 58 249 52 223 54 227 79 227 14 0 31 -4 39 -9z
m-3717 -94 c-40 -57 -117 -114 -177 -132 -27 -9 -91 -20 -142 -25 -107 -11
-185 -38 -242 -83 -40 -32 -114 -122 -133 -162 -6 -14 -33 -27 -90 -43 -45
-12 -83 -20 -85 -18 -8 8 95 202 140 262 49 67 92 104 153 131 33 15 68 18
219 18 165 0 185 2 238 23 32 13 77 38 100 56 51 40 59 28 19 -27z m3634 -543
c160 -82 206 -113 218 -145 12 -36 -1 -119 -20 -119 -12 0 -10 -8 7 -41 15
-31 20 -53 16 -88 -18 -163 -40 -300 -65 -388 -16 -57 -25 -103 -21 -103 5 0
9 -24 9 -52 0 -45 -7 -65 -45 -127 -28 -47 -63 -130 -96 -230 -58 -176 -133
-340 -207 -451 -50 -77 -112 -143 -112 -122 0 7 21 101 46 210 25 108 63 275
84 370 21 96 40 175 42 176 18 13 77 46 82 46 4 0 2 -9 -4 -19 -16 -30 -30
-71 -25 -71 3 0 22 26 42 58 20 31 58 87 84 123 44 59 79 132 79 162 0 6 -12
-13 -26 -42 -44 -87 -134 -132 -185 -92 -33 25 -41 66 -29 133 8 39 7 55 -2
64 -19 19 -169 74 -200 74 -58 0 -62 101 -6 128 23 11 39 10 107 -8 85 -21
136 -25 145 -11 3 5 -6 14 -22 19 -15 6 -65 26 -110 45 -66 28 -90 33 -113 27
-23 -7 -29 -5 -34 11 -9 27 13 86 38 104 29 20 83 19 169 -5 79 -22 132 -26
126 -10 -2 6 -44 30 -93 53 -66 30 -104 42 -143 43 -30 1 -56 4 -58 7 -11 10
17 84 38 104 38 36 67 37 170 4 104 -34 174 -42 148 -17 -8 7 -59 36 -113 64
-83 43 -103 49 -137 45 -38 -5 -40 -4 -40 21 0 59 50 116 101 116 15 0 85 -30
155 -66z m-362 -71 c-8 -71 -30 -123 -54 -123 -24 0 -54 35 -43 52 14 24 95
128 99 128 2 0 1 -26 -2 -57z m90 -895 c8 -13 0 -60 -32 -195 -41 -175 -67
-287 -257 -1118 -53 -231 -100 -434 -106 -452 -8 -26 -17 -34 -45 -39 -19 -3
-38 -4 -41 -1 -5 6 25 144 137 632 27 116 65 282 85 370 20 88 54 232 75 321
46 189 100 427 100 442 0 6 5 23 10 37 8 21 16 26 36 23 15 -2 32 -11 38 -20z
m-945 -34 c148 -43 304 -216 327 -361 6 -37 3 -45 -35 -93 -22 -28 -55 -81
-73 -118 -31 -63 -33 -73 -33 -177 0 -92 3 -117 22 -155 l21 -45 1 37 c2 64
30 188 55 244 52 112 107 176 254 289 53 41 114 88 135 106 20 17 37 26 37 21
0 -6 -11 -57 -24 -114 -14 -57 -46 -195 -71 -308 -53 -231 -61 -248 -165 -341
-35 -33 -60 -59 -55 -59 6 0 37 14 69 30 33 17 61 29 63 27 2 -2 -6 -44 -17
-93 -21 -89 -21 -90 -81 -142 -34 -29 -67 -52 -74 -52 -55 0 -145 70 -237 183
-52 65 -94 104 -159 148 -48 33 -107 81 -131 107 -45 48 -104 139 -96 148 3 2
53 -14 112 -36 58 -22 112 -40 118 -40 6 0 0 13 -15 28 -15 15 -27 31 -27 35
0 10 99 8 149 -4 24 -5 46 -8 48 -5 11 10 -33 81 -57 93 -14 6 -59 27 -101 47
-93 43 -172 118 -213 199 l-29 58 23 67 c17 49 24 95 26 171 1 56 5 105 8 108
24 24 139 23 225 -3z"/>
<path d="M4613 5215 c-51 -26 -91 -61 -81 -71 4 -3 20 2 37 10 50 26 111 30
156 11 l40 -17 -51 -12 c-28 -7 -68 -23 -89 -36 l-39 -24 30 -8 c16 -4 42 -4
58 2 49 17 66 13 66 -15 0 -15 10 -31 26 -42 l26 -17 -24 -19 -23 -19 30 7
c42 9 155 62 155 73 0 5 14 26 30 47 17 21 30 48 30 61 0 27 -15 32 -24 9 -9
-24 -32 -18 -133 35 -111 58 -145 62 -220 25z"/>
<path d="M4420 4856 c0 -3 28 -24 63 -47 34 -23 77 -56 95 -72 27 -26 32 -28
32 -12 0 29 -41 82 -80 103 -34 19 -110 38 -110 28z"/>
<path d="M4414 4703 c2 -10 8 -47 11 -82 5 -42 10 -59 16 -50 13 21 11 76 -5
114 -15 36 -31 48 -22 18z"/>
<path d="M4521 4488 c-6 -18 -27 -55 -46 -83 -34 -49 -61 -146 -37 -131 7 4
12 12 12 18 0 6 11 25 24 42 36 48 53 87 61 139 8 54 2 61 -14 15z"/>
<path d="M7218 3178 l17 -53 3 38 c2 21 -2 45 -9 53 -23 28 -27 13 -11 -38z"/>
<path d="M4120 3955 c1 -34 45 -212 80 -318 l41 -127 72 -34 c39 -19 73 -34
75 -32 1 2 -20 39 -47 83 -61 98 -131 238 -172 341 -29 72 -49 109 -49 87z"/>
<path d="M3410 3685 c28 -17 150 -55 171 -55 8 1 -15 16 -51 35 -42 22 -79 34
-105 34 -40 0 -40 0 -15 -14z"/>
<path d="M3155 3531 c-52 -13 -97 -42 -145 -91 -42 -43 -100 -127 -100 -145 0
-4 28 16 63 43 113 90 237 152 304 152 52 0 7 34 -59 44 -18 2 -46 1 -63 -3z"/>
<path d="M3660 3503 c-88 -13 -93 -15 -79 -24 8 -5 33 -9 57 -9 137 0 323 -49
500 -131 47 -22 88 -36 91 -33 3 3 -11 20 -32 38 -21 17 -35 34 -32 38 11 10
127 -21 194 -53 35 -16 92 -49 127 -74 34 -25 65 -45 69 -45 12 0 -25 56 -57
86 -67 63 -180 109 -318 129 -25 4 -94 20 -155 35 -160 42 -281 56 -365 43z"/>
<path d="M4630 3066 c0 -4 7 -23 16 -44 28 -68 54 -196 54 -273 0 -261 -150
-344 -620 -343 -184 0 -229 4 -310 22 -167 39 -324 127 -448 253 -75 77 -152
178 -152 200 0 9 16 43 35 75 19 32 35 62 35 66 0 5 -24 -9 -53 -31 -79 -60
-194 -109 -344 -147 -74 -18 -164 -48 -199 -65 -67 -33 -96 -58 -53 -45 49 15
213 17 264 4 l50 -13 3 -48 c9 -139 -118 -399 -279 -571 -96 -103 -173 -158
-314 -227 -66 -32 -133 -67 -149 -78 -17 -11 -33 -18 -38 -15 -11 7 -9 67 6
152 12 72 12 73 -5 50 -10 -12 -38 -60 -61 -106 -47 -92 -48 -67 6 -247 15
-49 30 -116 33 -147 3 -32 9 -58 13 -58 14 0 20 44 20 141 0 94 0 95 33 127
43 41 51 40 44 -5 -7 -39 10 -172 24 -187 4 -4 28 0 54 10 l47 18 -6 59 c-10
97 10 129 134 212 57 38 143 107 192 153 49 47 90 83 91 81 2 -2 22 -36 45
-75 102 -176 202 -284 359 -391 46 -31 85 -64 88 -72 3 -9 51 -39 106 -68 91
-47 100 -50 95 -30 -36 122 -47 185 -50 272 l-3 100 -66 35 c-86 46 -131 90
-169 167 -33 67 -53 203 -30 203 7 0 42 -20 79 -45 64 -43 171 -91 181 -81 2
3 -14 26 -37 52 -69 78 -104 162 -109 259 -2 45 0 85 5 88 5 3 39 -12 75 -33
196 -118 447 -172 694 -150 152 14 410 57 494 82 36 11 86 31 111 44 l46 23
27 -28 c15 -16 45 -61 67 -102 l40 -74 -6 45 c-3 25 -23 78 -44 119 l-38 74
29 56 c70 137 51 323 -51 491 -33 56 -61 85 -61 66z"/>
<path d="M2281 2905 c-19 -40 -27 -145 -12 -145 17 0 52 62 41 75 -5 6 -10 31
-12 55 l-4 45 -13 -30z"/>
<path d="M3752 2587 c-18 -21 -6 -41 38 -66 54 -30 133 -27 138 5 5 32 -50 67
-112 72 -38 3 -55 0 -64 -11z"/>
<path d="M3530 2130 c0 -6 9 -28 20 -49 40 -80 147 -142 244 -141 l41 1 -80
40 c-44 22 -113 67 -152 100 -40 33 -73 55 -73 49z"/>
<path d="M4325 2010 c-66 -22 -145 -54 -175 -72 -65 -39 -130 -119 -184 -222
-28 -54 -46 -78 -67 -86 -41 -17 -36 -27 17 -35 37 -5 56 -16 93 -53 25 -26
61 -74 78 -107 l32 -60 1 66 c0 55 -5 75 -30 120 -37 67 -37 99 -3 167 35 70
127 154 239 219 50 29 105 64 124 78 48 35 21 32 -125 -15z"/>
<path d="M4756 2019 c-3 -13 -7 -67 -9 -119 -9 -189 -66 -266 -228 -304 -35
-8 -89 -24 -119 -35 l-55 -20 110 -1 c166 -1 209 -22 247 -119 28 -74 31 -210
4 -259 -18 -35 -81 -71 -123 -72 -36 0 -27 -13 26 -36 34 -15 58 -35 76 -62
26 -39 64 -162 65 -212 l1 -25 10 24 c6 16 6 58 -1 121 -11 104 -9 122 24 158
32 36 28 195 -8 315 -14 48 -26 96 -26 107 0 23 33 47 78 56 39 8 39 11 7 36
-45 35 -48 52 -49 255 -1 134 -5 196 -13 204 -9 9 -13 7 -17 -12z"/>
<path d="M3410 1911 c0 -22 38 -86 69 -115 50 -48 46 -23 -10 50 -63 84 -59
80 -59 65z"/>
<path d="M965 1845 c-44 -16 -78 -50 -73 -73 2 -10 27 -22 68 -32 77 -19 122
-40 187 -86 26 -18 51 -30 55 -26 10 10 -8 86 -31 130 -23 46 -46 67 -94 87
-44 18 -60 18 -112 0z"/>
<path d="M1624 1485 c7 -111 24 -181 52 -214 24 -28 80 -58 90 -48 3 3 -13 39
-36 81 -23 42 -57 118 -76 169 l-35 92 5 -80z"/>
<path d="M7295 1540 c-103 -34 -223 -148 -287 -274 -21 -41 -16 -41 43 5 48
38 233 147 289 171 25 11 77 28 115 38 76 19 93 39 49 59 -50 22 -143 23 -209
1z"/>
<path d="M741 1510 c-95 -20 -243 -108 -272 -162 -19 -36 3 -41 76 -19 81 25
190 28 243 5 77 -32 123 -96 124 -173 0 -112 -81 -198 -269 -280 -137 -60
-445 -131 -567 -131 -59 0 -33 -17 47 -31 103 -18 323 -16 430 5 109 21 243
66 305 102 69 40 140 112 170 169 21 40 26 64 26 125 1 92 -22 147 -91 221
l-48 52 48 -7 c123 -18 221 -81 404 -258 72 -71 138 -128 146 -128 16 0 117
77 117 89 0 18 -336 290 -412 334 -120 69 -191 89 -323 93 -60 2 -130 -1 -154
-6z"/>
<path d="M2793 1370 c-25 -10 -30 -34 -10 -47 6 -4 52 -18 101 -30 105 -27
247 -93 331 -155 34 -25 131 -112 218 -194 180 -170 287 -250 437 -328 192
-98 377 -163 701 -245 443 -111 871 -167 1114 -146 l90 8 -140 22 c-176 29
-339 66 -480 112 -110 36 -215 78 -215 87 0 2 51 20 113 40 102 32 196 75 414
192 73 40 93 41 74 6 -20 -38 -13 -121 14 -168 65 -111 270 -195 550 -226 154
-17 421 14 528 60 38 17 36 17 -140 18 -276 0 -477 39 -635 121 -109 57 -190
163 -125 163 13 0 68 -15 123 -34 214 -72 450 -90 644 -49 155 33 233 81 450
273 131 117 241 198 350 257 70 38 207 93 232 93 6 0 -15 -27 -46 -60 -116
-121 -134 -242 -54 -360 63 -94 190 -170 361 -215 109 -30 299 -51 353 -40 38
8 37 8 -46 25 -247 51 -450 155 -531 274 -30 43 -34 56 -34 110 1 108 57 180
189 242 93 43 198 58 326 45 52 -6 96 -8 98 -6 24 23 -110 95 -224 121 -59 13
-105 15 -203 11 -154 -6 -256 -33 -416 -111 -105 -52 -176 -96 -457 -289 -201
-139 -349 -206 -511 -232 -121 -20 -193 -19 -304 4 -116 24 -199 68 -265 140
-44 48 -54 55 -84 53 -63 -5 -228 -70 -415 -165 -333 -170 -548 -216 -754
-162 -138 36 -301 112 -490 229 -46 28 -61 33 -63 22 -4 -19 19 -62 57 -106
43 -49 39 -55 -16 -24 -76 43 -203 127 -203 134 0 4 12 12 28 19 l27 13 -45
40 c-66 59 -305 238 -380 285 -98 61 -194 107 -300 143 -79 27 -113 33 -205
36 -60 2 -120 0 -132 -6z"/>
<path d="M2454 1360 c-166 -24 -351 -123 -649 -345 -82 -62 -188 -137 -235
-167 -198 -129 -477 -241 -687 -276 -57 -9 -103 -20 -103 -23 0 -17 171 -32
299 -26 236 11 385 62 713 244 340 190 626 230 928 131 74 -24 214 -92 280
-137 24 -17 46 -28 48 -26 10 10 -96 130 -159 179 -155 122 -273 167 -454 173
-82 3 -144 0 -195 -10 -41 -8 -77 -14 -79 -12 -7 8 13 26 78 69 84 56 208 110
325 142 101 26 116 36 100 62 -19 29 -103 38 -210 22z"/>
<path d="M3955 1244 c14 -36 37 -89 52 -118 29 -52 198 -234 209 -223 3 3 -4
35 -16 71 -17 53 -35 80 -103 153 -45 49 -98 110 -117 136 -19 25 -38 47 -42
47 -4 0 3 -30 17 -66z"/>
<path d="M3237 759 c34 -59 186 -210 275 -274 161 -115 365 -206 592 -266 171
-44 293 -60 512 -66 218 -6 271 5 131 26 -354 55 -697 163 -1024 322 -117 57
-403 224 -459 268 -38 30 -48 26 -27 -10z"/>
<path d="M2217 690 c-83 -15 -188 -50 -267 -90 -73 -37 -165 -98 -158 -105 2
-2 39 7 83 20 149 43 274 58 429 52 214 -8 338 -47 545 -171 134 -80 172 -99
282 -141 133 -51 330 -85 401 -70 30 7 29 8 -38 29 -115 37 -270 118 -449 236
-195 129 -285 176 -405 215 -74 24 -104 28 -230 31 -80 1 -167 -1 -193 -6z"/>
<path d="M6847 565 c-87 -24 -87 -26 18 -50 55 -13 144 -40 198 -59 54 -20
137 -43 184 -51 90 -16 240 -19 308 -7 39 7 38 8 -64 35 -57 15 -142 43 -190
63 -177 75 -209 84 -311 83 -52 -1 -116 -7 -143 -14z"/>
</g>
</svg>
